<svg xmlns="http://www.w3.org/2000/svg" width="267.25" height="35" viewBox="0 0 267.25 35"><rect class="svg__rect" x="0" y="0" width="92.2" height="35" fill="#31C4F3"/><rect class="svg__rect" x="90.2" y="0" width="177.05" height="35" fill="#389AD5"/><path class="svg__text" d="M13.78 19.42L13.78 19.42L15.27 19.42Q15.27 20.15 15.75 20.55Q16.23 20.95 17.12 20.95L17.12 20.95Q17.90 20.95 18.29 20.63Q18.68 20.32 18.68 19.80L18.68 19.80Q18.68 19.24 18.28 18.94Q17.89 18.63 16.85 18.32Q15.82 18.01 15.21 17.63L15.21 17.63Q14.05 16.90 14.05 15.72L14.05 15.72Q14.05 14.69 14.89 14.02Q15.73 13.35 17.07 13.35L17.07 13.35Q17.96 13.35 18.66 13.68Q19.36 14.01 19.75 14.61Q20.15 15.22 20.15 15.96L20.15 15.96L18.68 15.96Q18.68 15.29 18.26 14.91Q17.84 14.54 17.06 14.54L17.06 14.54Q16.33 14.54 15.93 14.85Q15.53 15.16 15.53 15.71L15.53 15.71Q15.53 16.18 15.96 16.50Q16.40 16.81 17.39 17.10Q18.39 17.40 18.99 17.78Q19.60 18.16 19.88 18.65Q20.16 19.13 20.16 19.79L20.16 19.79Q20.16 20.86 19.34 21.49Q18.52 22.12 17.12 22.12L17.12 22.12Q16.20 22.12 15.42 21.77Q14.64 21.43 14.21 20.83Q13.78 20.22 13.78 19.42ZM26.01 22L24.54 22L24.54 13.47L26.01 13.47L26.01 22ZM36.18 22L30.82 22L30.82 13.47L32.31 13.47L32.31 20.82L36.18 20.82L36.18 22ZM45.88 22L40.30 22L40.30 13.47L45.84 13.47L45.84 14.66L41.79 14.66L41.79 17.02L45.29 17.02L45.29 18.19L41.79 18.19L41.79 20.82L45.88 20.82L45.88 22ZM51.56 22L50.08 22L50.08 13.47L51.56 13.47L55.37 19.54L55.37 13.47L56.84 13.47L56.84 22L55.36 22L51.56 15.95L51.56 22ZM61.31 18.19L61.31 18.19L61.31 17.39Q61.31 16.19 61.74 15.27Q62.17 14.35 62.97 13.85Q63.77 13.35 64.82 13.35L64.82 13.35Q66.23 13.35 67.09 14.12Q67.95 14.89 68.09 16.29L68.09 16.29L66.62 16.29Q66.51 15.37 66.08 14.96Q65.65 14.55 64.82 14.55L64.82 14.55Q63.85 14.55 63.33 15.26Q62.81 15.96 62.80 17.33L62.80 17.33L62.80 18.09Q62.80 19.47 63.30 20.20Q63.79 20.92 64.75 20.92L64.75 20.92Q65.62 20.92 66.06 20.53Q66.50 20.14 66.62 19.22L66.62 19.22L68.09 19.22Q67.97 20.59 67.09 21.35Q66.21 22.12 64.75 22.12L64.75 22.12Q63.73 22.12 62.95 21.63Q62.18 21.15 61.75 20.26Q61.33 19.37 61.31 18.19ZM77.98 22L72.41 22L72.41 13.47L77.94 13.47L77.94 14.66L73.89 14.66L73.89 17.02L77.39 17.02L77.39 18.19L73.89 18.19L73.89 20.82L77.98 20.82L77.98 22Z" fill="#FFFFFF"/><path class="svg__text" d="M106.77 22L104.39 22L104.39 13.60L108.23 13.60Q109.37 13.60 110.21 13.98Q111.05 14.35 111.51 15.06Q111.96 15.76 111.96 16.71L111.96 16.71Q111.96 17.66 111.51 18.35Q111.05 19.05 110.21 19.42Q109.37 19.80 108.23 19.80L108.23 19.80L106.77 19.80L106.77 22ZM106.77 15.47L106.77 17.93L108.09 17.93Q108.82 17.93 109.19 17.61Q109.56 17.29 109.56 16.71L109.56 16.71Q109.56 16.12 109.19 15.80Q108.82 15.47 108.09 15.47L108.09 15.47L106.77 15.47ZM119.09 22L116.72 22L116.72 13.60L119.09 13.60L119.09 22ZM123.84 17.80L123.84 17.80Q123.84 16.54 124.44 15.54Q125.04 14.55 126.09 13.99Q127.14 13.43 128.46 13.43L128.46 13.43Q129.61 13.43 130.54 13.84Q131.46 14.25 132.07 15.02L132.07 15.02L130.56 16.39Q129.75 15.40 128.58 15.40L128.58 15.40Q127.90 15.40 127.36 15.70Q126.83 16 126.53 16.54Q126.24 17.09 126.24 17.80L126.24 17.80Q126.24 18.51 126.53 19.05Q126.83 19.60 127.36 19.90Q127.90 20.20 128.58 20.20L128.58 20.20Q129.75 20.20 130.56 19.22L130.56 19.22L132.07 20.58Q131.46 21.35 130.54 21.76Q129.61 22.17 128.46 22.17L128.46 22.17Q127.14 22.17 126.09 21.61Q125.04 21.05 124.44 20.05Q123.84 19.06 123.84 17.80ZM138.99 22L136.61 22L136.61 13.60L140.45 13.60Q141.59 13.60 142.43 13.98Q143.27 14.35 143.73 15.06Q144.18 15.76 144.18 16.71L144.18 16.71Q144.18 17.62 143.76 18.30Q143.33 18.98 142.54 19.36L142.54 19.36L144.35 22L141.81 22L140.28 19.77L138.99 19.77L138.99 22ZM138.99 15.47L138.99 17.93L140.31 17.93Q141.04 17.93 141.41 17.61Q141.78 17.29 141.78 16.71L141.78 16.71Q141.78 16.12 141.41 15.79Q141.04 15.47 140.31 15.47L140.31 15.47L138.99 15.47ZM155.72 22L148.97 22L148.97 13.60L155.56 13.60L155.56 15.44L151.33 15.44L151.33 16.85L155.06 16.85L155.06 18.63L151.33 18.63L151.33 20.17L155.72 20.17L155.72 22ZM162.60 22L159.88 13.60L162.33 13.60L164.01 18.96L165.79 13.60L167.97 13.60L169.67 19.01L171.43 13.60L173.70 13.60L170.97 22L168.43 22L166.83 16.89L165.14 22L162.60 22ZM186.60 22L184.17 22L187.88 13.60L190.23 13.60L193.94 22L191.48 22L190.81 20.37L187.26 20.37L186.60 22ZM189.04 15.93L187.95 18.61L190.12 18.61L189.04 15.93ZM200.68 22L197.09 13.60L199.66 13.60L201.94 19.07L204.27 13.60L206.62 13.60L203.02 22L200.68 22ZM212.19 22L209.76 22L213.47 13.60L215.82 13.60L219.53 22L217.06 22L216.40 20.37L212.85 20.37L212.19 22ZM214.63 15.93L213.54 18.61L215.70 18.61L214.63 15.93ZM225.48 15.48L222.89 15.48L222.89 13.60L230.42 13.60L230.42 15.48L227.85 15.48L227.85 22L225.48 22L225.48 15.48ZM236.21 22L233.78 22L237.49 13.60L239.83 13.60L243.55 22L241.08 22L240.42 20.37L236.87 20.37L236.21 22ZM238.64 15.93L237.56 18.61L239.72 18.61L238.64 15.93ZM250.08 22L247.70 22L247.70 13.60L251.55 13.60Q252.69 13.60 253.53 13.98Q254.36 14.35 254.82 15.06Q255.28 15.76 255.28 16.71L255.28 16.71Q255.28 17.62 254.85 18.30Q254.42 18.98 253.63 19.36L253.63 19.36L255.44 22L252.90 22L251.38 19.77L250.08 19.77L250.08 22ZM250.08 15.47L250.08 17.93L251.40 17.93Q252.13 17.93 252.50 17.61Q252.88 17.29 252.88 16.71L252.88 16.71Q252.88 16.12 252.50 15.79Q252.13 15.47 251.40 15.47L251.40 15.47L250.08 15.47Z" fill="#FFFFFF" x="103.2"/></svg>